<svg id="Sun" data-name="Light mode" xmlns="http://www.w3.org/2000/svg" viewBox="0 0 512 512">
	<defs>
		<style>
			path{
                fill:none;
                stroke-miterlimit:10;
                stroke:#000;
                stroke-width:20 }
		</style>
	</defs>
	<path d="M408.79,256A152.79,152.79,0,1,1,256,103.21,152.79,152.79,0,0,1,408.79,256ZM367.48,62.92,348.07,96.53m101,48-33.61,19.41M479,256H440.14m-24.67,92.07,33.61,19.41m-81.6,81.6-19.41-33.61M256,479V440.14m-111.48,8.94,19.41-33.61m-101-48,33.61-19.41M33.05,256H71.86M62.92,144.52l33.61,19.41m48-101,19.41,33.61M256,33.05V71.86" />
</svg>
